<?xml version="1.0"?>
<svg xmlns="http://www.w3.org/2000/svg" xmlns:xlink="http://www.w3.org/1999/xlink" xmlns:svgjs="http://svgjs.com/svgjs" version="1.1" width="512" height="512" x="0" y="0" viewBox="0 0 512.391 512.391" style="enable-background:new 0 0 512 512" xml:space="preserve" class=""><g><g xmlns="http://www.w3.org/2000/svg"><path d="m151 301.195h-91v151h91zm-30 121h-31v-91h31z" fill="#fb7a67" data-original="#000000" style=""/><path d="m181 331.195v121h90v-121zm60 91h-30v-61h30z" fill="#fb7a67" data-original="#000000" style=""/><path d="m421 452.195h91v-181h-91zm30-151h31v121h-31z" fill="#fb7a67" data-original="#000000" style=""/><path d="m301 211.195v241h90v-241zm60 211h-30v-181h30z" fill="#fb7a67" data-original="#000000" style=""/><path d="m419.481 56.889 34.878 34.306h-65.94c-6.192-17.458-22.865-30-42.42-30-24.813 0-45 20.187-45 45 0 8.71 2.495 16.845 6.797 23.742l-67.012 83.766c-4.634-1.617-9.606-2.507-14.785-2.507-12.11 0-23.11 4.817-31.208 12.625l-44.147-22.073c.225-1.821.355-3.671.355-5.552 0-24.813-20.187-45-45-45-24.859 0-46 20.092-46 45 0 24.858 21.096 45 46 45 12.11 0 23.11-4.817 31.208-12.625l44.147 22.073c-.225 1.821-.355 3.671-.355 5.552 0 24.813 20.187 45 45 45s45-20.187 45-45c0-8.71-2.495-16.845-6.797-23.742l67.012-83.766c4.634 1.617 9.606 2.507 14.785 2.507 19.555 0 36.228-12.542 42.42-30h65.94l-34.878 34.306 21.037 21.388 71.872-70.694-71.872-70.694zm-313.481 154.306c-8.523 0-16-7.009-16-15s7.477-15 16-15c8.271 0 15 6.729 15 15s-6.729 15-15 15zm120 60c-8.271 0-15-6.729-15-15s6.729-15 15-15 15 6.729 15 15-6.729 15-15 15zm120-150c-8.271 0-15-6.729-15-15s6.729-15 15-15 15 6.729 15 15-6.729 15-15 15z" fill="#fb7a67" data-original="#000000" style=""/><path d="m30 .195h-30v512h512v-30h-482z" fill="#fb7a67" data-original="#000000" style=""/></g></g></svg>
