<?xml version="1.0"?>
<svg xmlns="http://www.w3.org/2000/svg" xmlns:xlink="http://www.w3.org/1999/xlink" xmlns:svgjs="http://svgjs.com/svgjs" version="1.1" width="512" height="512" x="0" y="0" viewBox="0 0 512 512" style="enable-background:new 0 0 512 512" xml:space="preserve" class=""><g><g xmlns="http://www.w3.org/2000/svg"><circle cx="256" cy="115" r="10" fill="#fb7a67" data-original="#000000" style="" class=""/><circle cx="282.905" cy="239" r="10" fill="#fb7a67" data-original="#000000" style="" class=""/><path d="m417 210.471v-26.73c17.129-4.337 30.575-19.551 34.094-38.74h.906c16.54 0 30-13.46 30-30s-13.46-30-30-30h-146.969c-4.398-7.162-10.031-13.286-17.031-17.928v-.013l-1.26-37.37c-.25-8-3.61-15.48-9.35-21.05-5.75-5.57-13.355-8.64-21.355-8.64s-15.598 3.07-21.338 8.64-9.174 13.05-9.424 21.05l-1.273 37.38v.009c-7 4.641-12.635 10.763-17.031 17.921h-146.969c-16.54 0-30 13.46-30 30s13.46 30 30 30h.906c3.52 19.189 16.966 34.403 34.094 38.74v26.73s-61.713 54.164-61.771 54.221c-1.981 1.827-3.229 4.436-3.229 7.344 0 41.355 33.645 75 75 75s75-33.645 75-75c0-2.869-1.215-5.448-3.15-7.272-.081-.082-61.85-54.293-61.85-54.293v-26.73c17.129-4.337 30.575-19.551 34.094-38.74h57.875c3.792 6.174 8.715 11.581 14.481 15.929v.001l-5.158 171.07h-.292c-5.17 0-9.48 3.93-9.96 9.08l-4.57 49.37c-21.55 16.45-35.47 42.4-35.47 71.55v40c0 5.523 4.477 10 10 10h160c5.523 0 10-4.477 10-10v-40c0-29.15-13.92-55.1-35.47-71.55l-4.57-49.37c-.48-5.15-4.79-9.08-9.96-9.08h-.294l-1.456-48.11c-.08-2.62-1.15-5.06-3.03-6.88-1.95-1.89-4.54-2.9-7.26-2.82-2.67.08-5.15 1.2-6.98 3.14-1.76 1.88-2.72 4.3-2.72 6.85l1.43 47.82h-39.38l4.69-161.44v-.009c5 1.265 9.873 1.949 15 1.949s10-.684 15-1.949v.009l.635 23.97c.08 2.62 1.118 5.06 2.998 6.88 1.95 1.89 4.499 2.9 7.239 2.82 5.51-.17 9.849-4.755 9.679-10.265l-.996-32.965h-.003c5.766-4 10.687-9.826 14.478-16h57.875c3.52 19.189 16.966 34.403 34.094 38.74v26.73s-61.847 54.277-61.956 54.389c-1.875 1.818-3.044 4.358-3.044 7.176 0 41.355 33.645 75 75 75s75-33.645 75-75c0-2.831-1.181-5.381-3.071-7.2-.1-.103-61.928-54.364-61.928-54.364zm-312 116.529c-26.914 0-49.374-19-54.089-45h108.178c-4.715 26-27.175 45-54.089 45zm38.442-65h-76.884l38.442-33.732zm-38.442-97c-10.865 0-20.133-8.359-23.572-20h47.145c-3.44 11.641-12.708 20-23.573 20zm94.388-40h-139.388c-5.51 0-10-4.49-10-10s4.49-10 10-10h139.388c-.573 3.25-.888 6.588-.888 10s.316 6.75.888 10zm46.002-94.71c.17-5.77 4.83-10.29 10.6-10.29h.02c5.77 0 10.43 4.52 10.6 10.29l.85 28.36c-3.705-.752-7.537-1.15-11.46-1.15s-7.755.398-11.46 1.15zm80.61 461.71h-140v-20h140zm-28.05-86c14.49 10.88 24.65 27.25 27.34 46h-138.58c2.69-18.75 12.85-35.12 27.34-46 11.7-8.79 26.23-14 41.95-14s30.25 5.21 41.95 14zm-11.95-54h.88l2.45 26.4c-10.31-4.13-21.56-6.4-33.33-6.4s-23.02 2.27-33.33 6.4l2.45-26.4h.88zm-30-199.5c-20.678 0-37.5-16.822-37.5-37.5s16.822-37.5 37.5-37.5 37.5 16.822 37.5 37.5-16.822 37.5-37.5 37.5zm56.612-27.5c.573-3.25.888-6.588.888-10s-.316-6.75-.888-10h139.388c5.51 0 10 4.49 10 10s-4.49 10-10 10zm70.816 20h47.145c-3.439 11.641-12.708 20-23.572 20s-20.134-8.359-23.573-20zm23.572 83.268 38.442 33.732h-76.884zm0 98.732c-26.914 0-49.374-19-54.089-45h108.178c-4.715 26-27.175 45-54.089 45z" fill="#fb7a67" data-original="#000000" style="" class=""/></g></g></svg>
